# xmcd
#
# Track frame offsets:
#	150
#	17190
#	30423
#	43586
#	57054
#	70340
#	84150
#	102081
#	118011
#	139250
#	155690
#	169473
#	184311
#	201319
#
# Disc length: 2835 seconds
#
# Revision: 1
# Processed by: cddbd v1.5.2PL0 Copyright (c) Steve Scherf et al.
# Submitted via: audiograbber 1.83.01
#
DISCID=c10b110e
DTITLE=яода екемг [2007] - то йяациом
DYEAR=2007
DGENRE=
TTITLE0=хекы ма соу яины лиа цяохиа
TTITLE1=пыс лпояеи ема пяепеи
TTITLE2=ста йяужа
TTITLE3=то йяациом
TTITLE4=поу ма паы апоье
TTITLE5=упохесг луакоу
TTITLE6=циа лиа цумаийа
TTITLE7=то йеяла
TTITLE8=айамхимо стежами
TTITLE9=танидиаяа
TTITLE10=се дусйокг стицлг
TTITLE11=се цмыяифы
TTITLE12=стг хгба
TTITLE13=то споуяцити
EXTD=
EXTT0=
EXTT1=
EXTT2=
EXTT3=
EXTT4=
EXTT5=
EXTT6=
EXTT7=
EXTT8=
EXTT9=
EXTT10=
EXTT11=
EXTT12=
EXTT13=
PLAYORDER=
